<svg width="16" height="16" viewBox="0 0 16 16" fill="none" xmlns="http://www.w3.org/2000/svg">
<path d="M14.5411 0.113711H12.5364C11.9178 0.113711 11.4163 0.605134 11.4163 1.21137V3.17601C11.4163 3.78225 11.9178 4.27371 12.5364 4.27371H14.5411C15.1597 4.27371 15.6612 3.78225 15.6612 3.17601V1.21137C15.6612 0.605134 15.1597 0.113711 14.5411 0.113711Z" fill="#AE1332"/>
<path d="M3.36519 11.4768H1.20624C0.540049 11.4768 0 11.9682 0 12.5745V14.5391C0 15.1454 0.540049 15.6368 1.20624 15.6368H3.36519C4.03138 15.6368 4.57143 15.1454 4.57143 14.5391V12.5745C4.57143 11.9682 4.03138 11.4768 3.36519 11.4768Z" fill="#AE1332"/>
<path d="M3.1248 5.7477H1.12007C0.501486 5.7477 0 6.23912 0 6.84536V8.81C0 9.41624 0.501599 9.9077 1.12018 9.9077H3.1248C3.74341 9.9077 4.2449 9.41624 4.2449 8.81V6.84536C4.2449 6.23912 3.74341 5.7477 3.1248 5.7477Z" fill="#AE1332"/>
<path d="M8.88295 11.4459H6.87822C6.25964 11.4459 5.75815 11.9373 5.75815 12.5435L5.75804 14.5082C5.75804 15.1144 6.25975 15.6059 6.87833 15.6059H8.88295C9.50157 15.6059 10.0031 15.1144 10.0031 14.5082V12.5435C10.0031 11.9373 9.50157 11.4459 8.88295 11.4459Z" fill="#AE1332"/>
<path d="M3.1248 -7.6782e-05H1.12007C0.501486 -7.6782e-05 0 0.491346 0 1.09759V3.06223C0 3.66847 0.501599 4.15992 1.12018 4.15992H3.1248C3.74341 4.15992 4.2449 3.66847 4.2449 3.06223V1.09759C4.2449 0.491347 3.74341 -7.6782e-05 3.1248 -7.6782e-05Z" fill="#AE1332"/>
<path d="M9.03794 5.80552H7.03321C6.41463 5.80552 5.91314 6.29695 5.91314 6.90319V8.86782C5.91314 9.47406 6.41474 9.96552 7.03332 9.96552H9.03794C9.65655 9.96552 10.158 9.47406 10.158 8.86782V6.90319C10.158 6.29695 9.65655 5.80552 9.03794 5.80552Z" fill="#AE1332"/>
<path d="M14.6667 11.4459H12.6619C12.0434 11.4459 11.5419 11.9373 11.5419 12.5435V14.5082C11.5419 15.1144 12.0435 15.6059 12.662 15.6059H14.6667C15.2853 15.6059 15.7868 15.1144 15.7868 14.5082V12.5435C15.7868 11.9373 15.2853 11.4459 14.6667 11.4459Z" fill="#AE1332"/>
<path d="M8.7953 0.0686407H6.79056C6.17198 0.0686407 5.6705 0.560064 5.6705 1.1663V3.13094C5.6705 3.73718 6.1721 4.22864 6.79068 4.22864H8.7953C9.41391 4.22864 9.91539 3.73682 9.91539 3.13058V1.1663C9.91539 0.560064 9.41391 0.0686407 8.7953 0.0686407Z" fill="#AE1332"/>
<path d="M14.5219 5.9197H12.5171C11.8985 5.9197 11.3971 6.41112 11.3971 7.01736V8.982C11.3971 9.58824 11.8987 10.0797 12.5172 10.0797H14.5219C15.1405 10.0797 15.642 9.58824 15.642 8.982V7.01736C15.642 6.41112 15.1405 5.9197 14.5219 5.9197Z" fill="#AE1332"/>
</svg>
